<mxfile host="65bd71144e">
    <diagram id="9UiXypWRZFRcjAS7Dsmg" name="Page-1">
        <mxGraphModel dx="3011" dy="989" grid="1" gridSize="10" guides="1" tooltips="1" connect="1" arrows="1" fold="1" page="1" pageScale="1" pageWidth="827" pageHeight="1169" math="0" shadow="0">
            <root>
                <mxCell id="0"/>
                <mxCell id="1" parent="0"/>
                <mxCell id="2" value="&lt;div style=&quot;color: rgb(212, 212, 212); background-color: rgb(30, 30, 30); font-family: Menlo, Monaco, &amp;quot;Courier New&amp;quot;, monospace; font-size: 14px; line-height: 21px;&quot;&gt;episodes&lt;/div&gt;" style="rounded=1;whiteSpace=wrap;html=1;" parent="1" vertex="1">
                    <mxGeometry x="-500" y="90" width="120" height="60" as="geometry"/>
                </mxCell>
                <mxCell id="5" value="&lt;div style=&quot;color: rgb(212, 212, 212); background-color: rgb(30, 30, 30); font-family: Menlo, Monaco, &amp;quot;Courier New&amp;quot;, monospace; font-size: 14px; line-height: 21px;&quot;&gt;embed&lt;/div&gt;" style="rounded=1;whiteSpace=wrap;html=1;" parent="1" vertex="1">
                    <mxGeometry x="-500" y="240" width="120" height="60" as="geometry"/>
                </mxCell>
                <mxCell id="7" value="&lt;div style=&quot;color: rgb(212, 212, 212); background-color: rgb(30, 30, 30); font-family: Menlo, Monaco, &amp;quot;Courier New&amp;quot;, monospace; font-size: 14px; line-height: 21px;&quot;&gt;post&lt;/div&gt;" style="rounded=1;whiteSpace=wrap;html=1;" parent="1" vertex="1">
                    <mxGeometry x="-584" y="460" width="120" height="60" as="geometry"/>
                </mxCell>
                <mxCell id="8" value="&lt;div style=&quot;color: rgb(212, 212, 212); background-color: rgb(30, 30, 30); font-family: Menlo, Monaco, &amp;quot;Courier New&amp;quot;, monospace; font-size: 14px; line-height: 21px;&quot;&gt;losses['kl']&lt;br&gt;&lt;/div&gt;" style="rounded=1;whiteSpace=wrap;html=1;" parent="1" vertex="1">
                    <mxGeometry x="-500" y="720" width="120" height="60" as="geometry"/>
                </mxCell>
                <mxCell id="169" style="edgeStyle=none;html=1;entryX=0;entryY=0.5;entryDx=0;entryDy=0;strokeColor=#FF99FF;" edge="1" parent="1" source="9" target="165">
                    <mxGeometry relative="1" as="geometry"/>
                </mxCell>
                <mxCell id="9" value="&lt;div style=&quot;color: rgb(212, 212, 212); background-color: rgb(30, 30, 30); font-family: Menlo, Monaco, &amp;quot;Courier New&amp;quot;, monospace; font-size: 14px; line-height: 21px;&quot;&gt;feat&lt;/div&gt;" style="rounded=1;whiteSpace=wrap;html=1;" parent="1" vertex="1">
                    <mxGeometry x="-500" y="880" width="120" height="60" as="geometry"/>
                </mxCell>
                <mxCell id="10" value="&lt;div style=&quot;color: rgb(212, 212, 212); background-color: rgb(30, 30, 30); font-family: Menlo, Monaco, &amp;quot;Courier New&amp;quot;, monospace; font-size: 14px; line-height: 21px;&quot;&gt;losses['image']&lt;/div&gt;" style="rounded=1;whiteSpace=wrap;html=1;" parent="1" vertex="1">
                    <mxGeometry x="-500" y="1040" width="120" height="60" as="geometry"/>
                </mxCell>
                <mxCell id="11" value="&lt;div style=&quot;color: rgb(212, 212, 212); background-color: rgb(30, 30, 30); font-family: Menlo, Monaco, &amp;quot;Courier New&amp;quot;, monospace; font-size: 14px; line-height: 21px;&quot;&gt;model_loss&lt;/div&gt;" style="rounded=1;whiteSpace=wrap;html=1;" parent="1" vertex="1">
                    <mxGeometry x="-500" y="1200" width="120" height="60" as="geometry"/>
                </mxCell>
                <mxCell id="15" value="Replay.py/Class Replay" style="swimlane;fontStyle=0;childLayout=stackLayout;horizontal=1;startSize=30;horizontalStack=0;resizeParent=1;resizeParentMax=0;resizeLast=0;collapsible=1;marginBottom=0;whiteSpace=wrap;html=1;" parent="1" vertex="1">
                    <mxGeometry x="-790" y="120" width="140" height="120" as="geometry"/>
                </mxCell>
                <mxCell id="16" value="&lt;span style=&quot;color: rgb(200, 200, 200); font-family: Menlo, Monaco, &amp;quot;Courier New&amp;quot;, monospace; font-size: 14px; background-color: rgb(30, 30, 30);&quot;&gt;dataset&lt;/span&gt;" style="text;strokeColor=none;fillColor=none;align=left;verticalAlign=middle;spacingLeft=4;spacingRight=4;overflow=hidden;points=[[0,0.5],[1,0.5]];portConstraint=eastwest;rotatable=0;whiteSpace=wrap;html=1;" parent="15" vertex="1">
                    <mxGeometry y="30" width="140" height="30" as="geometry"/>
                </mxCell>
                <mxCell id="17" value="&lt;div style=&quot;background-color: rgb(30, 30, 30); font-family: Menlo, Monaco, &amp;quot;Courier New&amp;quot;, monospace; font-size: 14px; line-height: 21px;&quot;&gt;&lt;font color=&quot;#c8c8c8&quot;&gt;_sample_sequence&lt;/font&gt;&lt;/div&gt;" style="text;strokeColor=none;fillColor=none;align=left;verticalAlign=middle;spacingLeft=4;spacingRight=4;overflow=hidden;points=[[0,0.5],[1,0.5]];portConstraint=eastwest;rotatable=0;whiteSpace=wrap;html=1;" parent="15" vertex="1">
                    <mxGeometry y="60" width="140" height="30" as="geometry"/>
                </mxCell>
                <mxCell id="18" value="。。。" style="text;strokeColor=none;fillColor=none;align=left;verticalAlign=middle;spacingLeft=4;spacingRight=4;overflow=hidden;points=[[0,0.5],[1,0.5]];portConstraint=eastwest;rotatable=0;whiteSpace=wrap;html=1;" parent="15" vertex="1">
                    <mxGeometry y="90" width="140" height="30" as="geometry"/>
                </mxCell>
                <mxCell id="20" value="Replay.py/Class ReplayWithoutAction" style="swimlane;fontStyle=0;childLayout=stackLayout;horizontal=1;startSize=30;horizontalStack=0;resizeParent=1;resizeParentMax=0;resizeLast=0;collapsible=1;marginBottom=0;whiteSpace=wrap;html=1;" parent="1" vertex="1">
                    <mxGeometry x="-1020" y="120" width="140" height="120" as="geometry"/>
                </mxCell>
                <mxCell id="21" value="。。。" style="text;strokeColor=none;fillColor=none;align=left;verticalAlign=middle;spacingLeft=4;spacingRight=4;overflow=hidden;points=[[0,0.5],[1,0.5]];portConstraint=eastwest;rotatable=0;whiteSpace=wrap;html=1;" parent="20" vertex="1">
                    <mxGeometry y="30" width="140" height="30" as="geometry"/>
                </mxCell>
                <mxCell id="22" value="&lt;div style=&quot;color: rgb(212, 212, 212); background-color: rgb(30, 30, 30); font-family: Menlo, Monaco, &amp;quot;Courier New&amp;quot;, monospace; font-size: 14px; line-height: 21px;&quot;&gt;&lt;div style=&quot;line-height: 21px;&quot;&gt;&lt;span style=&quot;color: #c8c8c8;&quot;&gt;_generate_chunks&lt;/span&gt;&lt;/div&gt;&lt;/div&gt;" style="text;strokeColor=none;fillColor=none;align=left;verticalAlign=middle;spacingLeft=4;spacingRight=4;overflow=hidden;points=[[0,0.5],[1,0.5]];portConstraint=eastwest;rotatable=0;whiteSpace=wrap;html=1;" parent="20" vertex="1">
                    <mxGeometry y="60" width="140" height="30" as="geometry"/>
                </mxCell>
                <mxCell id="23" value="。。。" style="text;strokeColor=none;fillColor=none;align=left;verticalAlign=middle;spacingLeft=4;spacingRight=4;overflow=hidden;points=[[0,0.5],[1,0.5]];portConstraint=eastwest;rotatable=0;whiteSpace=wrap;html=1;" parent="20" vertex="1">
                    <mxGeometry y="90" width="140" height="30" as="geometry"/>
                </mxCell>
                <mxCell id="45" value="nets.py/Class Encoder" style="swimlane;fontStyle=0;childLayout=stackLayout;horizontal=1;startSize=30;horizontalStack=0;resizeParent=1;resizeParentMax=0;resizeLast=0;collapsible=1;marginBottom=0;whiteSpace=wrap;html=1;" parent="1" vertex="1">
                    <mxGeometry x="-200" y="170" width="140" height="120" as="geometry"/>
                </mxCell>
                <mxCell id="46" value="&lt;div style=&quot;color: rgb(212, 212, 212); background-color: rgb(30, 30, 30); font-family: Menlo, Monaco, &amp;quot;Courier New&amp;quot;, monospace; font-size: 14px; line-height: 21px;&quot;&gt;&lt;span style=&quot;color: #c8c8c8;&quot;&gt;__call__&lt;/span&gt;&lt;/div&gt;" style="text;strokeColor=none;fillColor=none;align=left;verticalAlign=middle;spacingLeft=4;spacingRight=4;overflow=hidden;points=[[0,0.5],[1,0.5]];portConstraint=eastwest;rotatable=0;whiteSpace=wrap;html=1;" parent="45" vertex="1">
                    <mxGeometry y="30" width="140" height="30" as="geometry"/>
                </mxCell>
                <mxCell id="47" value="&lt;div style=&quot;background-color: rgb(30, 30, 30); font-family: Menlo, Monaco, &amp;quot;Courier New&amp;quot;, monospace; font-size: 14px; line-height: 21px;&quot;&gt;&lt;font color=&quot;#c8c8c8&quot;&gt;_cnn&lt;/font&gt;&lt;/div&gt;" style="text;strokeColor=none;fillColor=none;align=left;verticalAlign=middle;spacingLeft=4;spacingRight=4;overflow=hidden;points=[[0,0.5],[1,0.5]];portConstraint=eastwest;rotatable=0;whiteSpace=wrap;html=1;" parent="45" vertex="1">
                    <mxGeometry y="60" width="140" height="30" as="geometry"/>
                </mxCell>
                <mxCell id="48" value="。。。" style="text;strokeColor=none;fillColor=none;align=left;verticalAlign=middle;spacingLeft=4;spacingRight=4;overflow=hidden;points=[[0,0.5],[1,0.5]];portConstraint=eastwest;rotatable=0;whiteSpace=wrap;html=1;" parent="45" vertex="1">
                    <mxGeometry y="90" width="140" height="30" as="geometry"/>
                </mxCell>
                <mxCell id="54" style="edgeStyle=none;html=1;exitX=1;exitY=0.5;exitDx=0;exitDy=0;strokeColor=#FF99CC;entryX=1;entryY=0.5;entryDx=0;entryDy=0;" parent="45" source="46" target="47" edge="1">
                    <mxGeometry relative="1" as="geometry">
                        <Array as="points">
                            <mxPoint x="200" y="45"/>
                            <mxPoint x="200" y="75"/>
                        </Array>
                        <mxPoint x="200" y="10" as="sourcePoint"/>
                    </mxGeometry>
                </mxCell>
                <mxCell id="50" style="edgeStyle=none;html=1;strokeColor=#FF99CC;exitX=0;exitY=0.5;exitDx=0;exitDy=0;entryX=0;entryY=0.5;entryDx=0;entryDy=0;" parent="1" target="46" edge="1">
                    <mxGeometry relative="1" as="geometry">
                        <mxPoint x="-440" y="215" as="sourcePoint"/>
                    </mxGeometry>
                </mxCell>
                <mxCell id="124" value="&lt;span style=&quot;font-size: 12px; background-color: rgb(42, 37, 47);&quot;&gt;←&lt;/span&gt;embed" style="edgeLabel;html=1;align=center;verticalAlign=middle;resizable=0;points=[];" parent="50" vertex="1" connectable="0">
                    <mxGeometry x="-0.1831" relative="1" as="geometry">
                        <mxPoint x="-1" as="offset"/>
                    </mxGeometry>
                </mxCell>
                <mxCell id="56" value="Nets.py/Class EnsembleRSSM" style="swimlane;fontStyle=0;childLayout=stackLayout;horizontal=1;startSize=30;horizontalStack=0;resizeParent=1;resizeParentMax=0;resizeLast=0;collapsible=1;marginBottom=0;whiteSpace=wrap;html=1;" parent="1" vertex="1">
                    <mxGeometry x="-949" y="300" width="140" height="500" as="geometry"/>
                </mxCell>
                <mxCell id="57" value="&lt;span style=&quot;color: rgb(200, 200, 200); font-family: Menlo, Monaco, &amp;quot;Courier New&amp;quot;, monospace; font-size: 14px; background-color: rgb(30, 30, 30);&quot;&gt;observe&lt;/span&gt;" style="text;strokeColor=none;fillColor=none;align=left;verticalAlign=middle;spacingLeft=4;spacingRight=4;overflow=hidden;points=[[0,0.5],[1,0.5]];portConstraint=eastwest;rotatable=0;whiteSpace=wrap;html=1;" parent="56" vertex="1">
                    <mxGeometry y="30" width="140" height="30" as="geometry"/>
                </mxCell>
                <mxCell id="63" value="&lt;div style=&quot;background-color: rgb(30, 30, 30); font-family: Menlo, Monaco, &amp;quot;Courier New&amp;quot;, monospace; font-weight: normal; font-size: 14px; line-height: 21px;&quot;&gt;&lt;br&gt;&lt;/div&gt;" style="text;whiteSpace=wrap;html=1;" parent="56" vertex="1">
                    <mxGeometry y="60" width="140" height="40" as="geometry"/>
                </mxCell>
                <mxCell id="58" value="&lt;div style=&quot;background-color: rgb(30, 30, 30); font-family: Menlo, Monaco, &amp;quot;Courier New&amp;quot;, monospace; font-size: 14px; line-height: 21px;&quot;&gt;&lt;font color=&quot;#c8c8c8&quot;&gt;obs_step&lt;/font&gt;&lt;/div&gt;" style="text;strokeColor=none;fillColor=none;align=left;verticalAlign=middle;spacingLeft=4;spacingRight=4;overflow=hidden;points=[[0,0.5],[1,0.5]];portConstraint=eastwest;rotatable=0;whiteSpace=wrap;html=1;" parent="56" vertex="1">
                    <mxGeometry y="100" width="140" height="30" as="geometry"/>
                </mxCell>
                <mxCell id="65" value="&lt;div style=&quot;background-color: rgb(30, 30, 30); font-family: Menlo, Monaco, &amp;quot;Courier New&amp;quot;, monospace; font-weight: normal; font-size: 14px; line-height: 21px;&quot;&gt;&lt;br&gt;&lt;/div&gt;" style="text;whiteSpace=wrap;html=1;" parent="56" vertex="1">
                    <mxGeometry y="130" width="140" height="40" as="geometry"/>
                </mxCell>
                <mxCell id="59" value="img_step" style="text;strokeColor=none;fillColor=none;align=left;verticalAlign=middle;spacingLeft=4;spacingRight=4;overflow=hidden;points=[[0,0.5],[1,0.5]];portConstraint=eastwest;rotatable=0;whiteSpace=wrap;html=1;" parent="56" vertex="1">
                    <mxGeometry y="170" width="140" height="30" as="geometry"/>
                </mxCell>
                <mxCell id="64" value="&lt;div style=&quot;background-color: rgb(30, 30, 30); font-family: Menlo, Monaco, &amp;quot;Courier New&amp;quot;, monospace; font-weight: normal; font-size: 14px; line-height: 21px;&quot;&gt;&lt;br&gt;&lt;/div&gt;" style="text;whiteSpace=wrap;html=1;" parent="56" vertex="1">
                    <mxGeometry y="200" width="140" height="40" as="geometry"/>
                </mxCell>
                <mxCell id="61" value="&lt;div style=&quot;color: rgb(212, 212, 212); background-color: rgb(30, 30, 30); font-family: Menlo, Monaco, &amp;quot;Courier New&amp;quot;, monospace; font-size: 14px; line-height: 21px;&quot;&gt;&lt;span style=&quot;color: #c8c8c8;&quot;&gt;_suff_stats_ensemble&lt;/span&gt;&lt;/div&gt;" style="text;strokeColor=none;fillColor=none;align=left;verticalAlign=middle;spacingLeft=4;spacingRight=4;overflow=hidden;points=[[0,0.5],[1,0.5]];portConstraint=eastwest;rotatable=0;whiteSpace=wrap;html=1;" parent="56" vertex="1">
                    <mxGeometry y="240" width="140" height="30" as="geometry"/>
                </mxCell>
                <mxCell id="67" value="&lt;div style=&quot;background-color: rgb(30, 30, 30); font-family: Menlo, Monaco, &amp;quot;Courier New&amp;quot;, monospace; font-weight: normal; font-size: 14px; line-height: 21px;&quot;&gt;&lt;br&gt;&lt;/div&gt;" style="text;whiteSpace=wrap;html=1;" parent="56" vertex="1">
                    <mxGeometry y="270" width="140" height="40" as="geometry"/>
                </mxCell>
                <mxCell id="60" value="&lt;div style=&quot;color: rgb(212, 212, 212); background-color: rgb(30, 30, 30); font-family: Menlo, Monaco, &amp;quot;Courier New&amp;quot;, monospace; font-size: 14px; line-height: 21px;&quot;&gt;&lt;span style=&quot;color: #c8c8c8;&quot;&gt;_suff_stats_layer&lt;/span&gt;&lt;/div&gt;" style="text;strokeColor=none;fillColor=none;align=left;verticalAlign=middle;spacingLeft=4;spacingRight=4;overflow=hidden;points=[[0,0.5],[1,0.5]];portConstraint=eastwest;rotatable=0;whiteSpace=wrap;html=1;" parent="56" vertex="1">
                    <mxGeometry y="310" width="140" height="30" as="geometry"/>
                </mxCell>
                <mxCell id="66" value="&lt;div style=&quot;background-color: rgb(30, 30, 30); font-family: Menlo, Monaco, &amp;quot;Courier New&amp;quot;, monospace; font-weight: normal; font-size: 14px; line-height: 21px;&quot;&gt;&lt;br&gt;&lt;/div&gt;" style="text;whiteSpace=wrap;html=1;" parent="56" vertex="1">
                    <mxGeometry y="340" width="140" height="40" as="geometry"/>
                </mxCell>
                <mxCell id="62" value="&lt;meta charset=&quot;utf-8&quot;&gt;&lt;div style=&quot;color: rgb(212, 212, 212); background-color: rgb(30, 30, 30); font-family: Menlo, Monaco, &amp;quot;Courier New&amp;quot;, monospace; font-weight: normal; font-size: 14px; line-height: 21px;&quot;&gt;&lt;div&gt;&lt;span style=&quot;color: #c8c8c8;&quot;&gt;get_dist&lt;/span&gt;&lt;/div&gt;&lt;/div&gt;" style="text;whiteSpace=wrap;html=1;" parent="56" vertex="1">
                    <mxGeometry y="380" width="140" height="40" as="geometry"/>
                </mxCell>
                <mxCell id="68" style="edgeStyle=none;html=1;strokeColor=#66FF66;exitX=0;exitY=0;exitDx=0;exitDy=0;" parent="56" source="66" target="62" edge="1">
                    <mxGeometry relative="1" as="geometry">
                        <mxPoint x="-60" y="280" as="sourcePoint"/>
                        <Array as="points">
                            <mxPoint x="-30" y="340"/>
                            <mxPoint x="-130" y="340"/>
                            <mxPoint x="-130" y="400"/>
                        </Array>
                    </mxGeometry>
                </mxCell>
                <mxCell id="110" value="[2]" style="edgeLabel;html=1;align=center;verticalAlign=middle;resizable=0;points=[];" parent="68" vertex="1" connectable="0">
                    <mxGeometry y="2" relative="1" as="geometry">
                        <mxPoint as="offset"/>
                    </mxGeometry>
                </mxCell>
                <mxCell id="71" value="" style="endArrow=classic;html=1;strokeColor=#66FF66;exitX=-0.008;exitY=0.067;exitDx=0;exitDy=0;exitPerimeter=0;entryX=0;entryY=0.5;entryDx=0;entryDy=0;" parent="56" edge="1">
                    <mxGeometry width="50" height="50" relative="1" as="geometry">
                        <mxPoint y="264" as="sourcePoint"/>
                        <mxPoint x="-1.1200000000003456" y="321.00999999999976" as="targetPoint"/>
                        <Array as="points">
                            <mxPoint x="-130" y="264"/>
                            <mxPoint x="-130" y="321"/>
                        </Array>
                    </mxGeometry>
                </mxCell>
                <mxCell id="109" value="[2]" style="edgeLabel;html=1;align=center;verticalAlign=middle;resizable=0;points=[];" parent="71" vertex="1" connectable="0">
                    <mxGeometry x="0.0108" y="1" relative="1" as="geometry">
                        <mxPoint as="offset"/>
                    </mxGeometry>
                </mxCell>
                <mxCell id="115" value="" style="endArrow=classic;html=1;strokeColor=#FFFF99;entryX=1.014;entryY=0.267;entryDx=0;entryDy=0;entryPerimeter=0;" parent="56" target="60" edge="1">
                    <mxGeometry width="50" height="50" relative="1" as="geometry">
                        <mxPoint x="142" y="120" as="sourcePoint"/>
                        <mxPoint x="250" y="90" as="targetPoint"/>
                        <Array as="points">
                            <mxPoint x="270" y="120"/>
                            <mxPoint x="270" y="318"/>
                        </Array>
                    </mxGeometry>
                </mxCell>
                <mxCell id="117" value="prior['deter0']+embed↓" style="edgeLabel;html=1;align=center;verticalAlign=middle;resizable=0;points=[];" parent="115" vertex="1" connectable="0">
                    <mxGeometry x="-0.757" y="1" relative="1" as="geometry">
                        <mxPoint x="5" as="offset"/>
                    </mxGeometry>
                </mxCell>
                <mxCell id="118" value="[3]" style="edgeLabel;html=1;align=center;verticalAlign=middle;resizable=0;points=[];" parent="115" vertex="1" connectable="0">
                    <mxGeometry x="-0.0727" relative="1" as="geometry">
                        <mxPoint as="offset"/>
                    </mxGeometry>
                </mxCell>
                <mxCell id="99" value="[3]" style="endArrow=classic;html=1;strokeColor=#FFFF66;exitX=1.01;exitY=0.874;exitDx=0;exitDy=0;exitPerimeter=0;entryX=1;entryY=0.5;entryDx=0;entryDy=0;" parent="56" source="60" target="62" edge="1">
                    <mxGeometry width="50" height="50" relative="1" as="geometry">
                        <mxPoint x="150" y="340" as="sourcePoint"/>
                        <mxPoint x="220" y="400" as="targetPoint"/>
                        <Array as="points">
                            <mxPoint x="270" y="336"/>
                            <mxPoint x="270" y="400"/>
                        </Array>
                    </mxGeometry>
                </mxCell>
                <mxCell id="154" value="&lt;div style=&quot;background-color: rgb(30, 30, 30); font-family: Menlo, Monaco, &amp;quot;Courier New&amp;quot;, monospace; font-weight: normal; font-size: 14px; line-height: 21px;&quot;&gt;&lt;br&gt;&lt;/div&gt;" style="text;whiteSpace=wrap;html=1;" parent="56" vertex="1">
                    <mxGeometry y="420" width="140" height="40" as="geometry"/>
                </mxCell>
                <mxCell id="153" value="&lt;div style=&quot;color: rgb(212, 212, 212); background-color: rgb(30, 30, 30); font-family: Menlo, Monaco, &amp;quot;Courier New&amp;quot;, monospace; font-weight: normal; font-size: 14px; line-height: 21px;&quot;&gt;&lt;div&gt;&lt;span style=&quot;color: #c8c8c8;&quot;&gt;get_feat&lt;/span&gt;&lt;/div&gt;&lt;/div&gt;" style="text;whiteSpace=wrap;html=1;" parent="56" vertex="1">
                    <mxGeometry y="460" width="140" height="40" as="geometry"/>
                </mxCell>
                <mxCell id="72" value="" style="endArrow=classic;html=1;strokeColor=#66FF66;exitX=-0.008;exitY=0.067;exitDx=0;exitDy=0;exitPerimeter=0;entryX=0;entryY=0.5;entryDx=0;entryDy=0;" parent="1" edge="1">
                    <mxGeometry width="50" height="50" relative="1" as="geometry">
                        <mxPoint x="-949" y="489" as="sourcePoint"/>
                        <mxPoint x="-950.1200000000003" y="546.0099999999998" as="targetPoint"/>
                        <Array as="points">
                            <mxPoint x="-1079" y="490"/>
                            <mxPoint x="-1079" y="546"/>
                        </Array>
                    </mxGeometry>
                </mxCell>
                <mxCell id="108" value="[2]" style="edgeLabel;html=1;align=center;verticalAlign=middle;resizable=0;points=[];" parent="72" vertex="1" connectable="0">
                    <mxGeometry x="0.021" relative="1" as="geometry">
                        <mxPoint as="offset"/>
                    </mxGeometry>
                </mxCell>
                <mxCell id="84" value="" style="endArrow=classic;html=1;strokeColor=#66FF66;exitX=-0.008;exitY=0.067;exitDx=0;exitDy=0;exitPerimeter=0;entryX=0;entryY=0.5;entryDx=0;entryDy=0;" parent="1" edge="1">
                    <mxGeometry width="50" height="50" relative="1" as="geometry">
                        <mxPoint x="-949" y="420" as="sourcePoint"/>
                        <mxPoint x="-950.1200000000003" y="477.00999999999976" as="targetPoint"/>
                        <Array as="points">
                            <mxPoint x="-1079" y="420"/>
                            <mxPoint x="-1079" y="477"/>
                        </Array>
                    </mxGeometry>
                </mxCell>
                <mxCell id="100" value="↑prior" style="edgeLabel;html=1;align=center;verticalAlign=middle;resizable=0;points=[];" parent="84" vertex="1" connectable="0">
                    <mxGeometry x="0.0721" y="-1" relative="1" as="geometry">
                        <mxPoint x="69" y="19" as="offset"/>
                    </mxGeometry>
                </mxCell>
                <mxCell id="103" value="↓post_t-1" style="edgeLabel;html=1;align=center;verticalAlign=middle;resizable=0;points=[];" parent="84" vertex="1" connectable="0">
                    <mxGeometry x="-0.6222" y="1" relative="1" as="geometry">
                        <mxPoint as="offset"/>
                    </mxGeometry>
                </mxCell>
                <mxCell id="107" value="[2]" style="edgeLabel;html=1;align=center;verticalAlign=middle;resizable=0;points=[];" parent="84" vertex="1" connectable="0">
                    <mxGeometry x="0.0006" y="-1" relative="1" as="geometry">
                        <mxPoint as="offset"/>
                    </mxGeometry>
                </mxCell>
                <mxCell id="86" value="" style="endArrow=classic;html=1;strokeColor=#FF99FF;exitX=-0.008;exitY=0.067;exitDx=0;exitDy=0;exitPerimeter=0;entryX=0;entryY=0.5;entryDx=0;entryDy=0;" parent="1" edge="1">
                    <mxGeometry width="50" height="50" relative="1" as="geometry">
                        <mxPoint x="-949" y="351" as="sourcePoint"/>
                        <mxPoint x="-950.1200000000003" y="408.00999999999976" as="targetPoint"/>
                        <Array as="points">
                            <mxPoint x="-1079" y="350"/>
                            <mxPoint x="-1079" y="408"/>
                        </Array>
                    </mxGeometry>
                </mxCell>
                <mxCell id="106" value="↓embed+post_t-1" style="edgeLabel;html=1;align=center;verticalAlign=middle;resizable=0;points=[];" parent="86" vertex="1" connectable="0">
                    <mxGeometry x="-0.5639" y="-3" relative="1" as="geometry">
                        <mxPoint as="offset"/>
                    </mxGeometry>
                </mxCell>
                <mxCell id="111" value="[1]" style="edgeLabel;html=1;align=center;verticalAlign=middle;resizable=0;points=[];" parent="86" vertex="1" connectable="0">
                    <mxGeometry x="-0.0096" relative="1" as="geometry">
                        <mxPoint as="offset"/>
                    </mxGeometry>
                </mxCell>
                <mxCell id="114" value="↑post, prior" style="edgeLabel;html=1;align=center;verticalAlign=middle;resizable=0;points=[];" parent="86" vertex="1" connectable="0">
                    <mxGeometry x="0.5315" y="1" relative="1" as="geometry">
                        <mxPoint x="9" as="offset"/>
                    </mxGeometry>
                </mxCell>
                <mxCell id="88" value="&lt;div style=&quot;color: rgb(212, 212, 212); background-color: rgb(30, 30, 30); font-family: Menlo, Monaco, &amp;quot;Courier New&amp;quot;, monospace; font-size: 14px; line-height: 21px;&quot;&gt;prior&lt;/div&gt;" style="rounded=1;whiteSpace=wrap;html=1;" parent="1" vertex="1">
                    <mxGeometry x="-414" y="460" width="120" height="60" as="geometry"/>
                </mxCell>
                <mxCell id="40" style="edgeStyle=none;html=1;exitX=0;exitY=0.5;exitDx=0;exitDy=0;entryX=0;entryY=0.5;entryDx=0;entryDy=0;strokeColor=#FF99CC;" parent="1" source="16" target="22" edge="1">
                    <mxGeometry relative="1" as="geometry">
                        <Array as="points">
                            <mxPoint x="-830" y="165"/>
                            <mxPoint x="-830" y="90"/>
                            <mxPoint x="-1080" y="90"/>
                            <mxPoint x="-1080" y="195"/>
                        </Array>
                    </mxGeometry>
                </mxCell>
                <mxCell id="43" value="&lt;span style=&quot;font-size: 12px; background-color: rgb(42, 37, 47);&quot;&gt;→&lt;/span&gt;chunk" style="edgeLabel;html=1;align=center;verticalAlign=middle;resizable=0;points=[];" parent="40" vertex="1" connectable="0">
                    <mxGeometry x="0.1088" y="1" relative="1" as="geometry">
                        <mxPoint x="60" y="-1" as="offset"/>
                    </mxGeometry>
                </mxCell>
                <mxCell id="39" style="edgeStyle=none;html=1;exitX=1;exitY=0.5;exitDx=0;exitDy=0;entryX=0;entryY=0.5;entryDx=0;entryDy=0;strokeColor=#FF99CC;" parent="1" source="22" target="17" edge="1">
                    <mxGeometry relative="1" as="geometry"/>
                </mxCell>
                <mxCell id="42" value="&lt;span style=&quot;font-size: 12px; background-color: rgb(42, 37, 47);&quot;&gt;←&lt;/span&gt;sequence" style="edgeLabel;html=1;align=center;verticalAlign=middle;resizable=0;points=[];" parent="39" vertex="1" connectable="0">
                    <mxGeometry x="0.1" relative="1" as="geometry">
                        <mxPoint x="-6" as="offset"/>
                    </mxGeometry>
                </mxCell>
                <mxCell id="120" value="" style="endArrow=classic;html=1;strokeColor=#FF99FF;curved=1;entryX=1;entryY=0.5;entryDx=0;entryDy=0;" parent="1" target="16" edge="1">
                    <mxGeometry width="50" height="50" relative="1" as="geometry">
                        <mxPoint x="-440" y="165" as="sourcePoint"/>
                        <mxPoint x="-570" y="120" as="targetPoint"/>
                    </mxGeometry>
                </mxCell>
                <mxCell id="123" value="&lt;span style=&quot;font-size: 12px; background-color: rgb(42, 37, 47);&quot;&gt;→&lt;/span&gt;batch" style="edgeLabel;html=1;align=center;verticalAlign=middle;resizable=0;points=[];" parent="120" vertex="1" connectable="0">
                    <mxGeometry x="0.3944" y="-1" relative="1" as="geometry">
                        <mxPoint x="-1" as="offset"/>
                    </mxGeometry>
                </mxCell>
                <mxCell id="121" value="" style="endArrow=none;html=1;strokeColor=#FFFFFF;entryX=0.5;entryY=1;entryDx=0;entryDy=0;exitX=0.5;exitY=0;exitDx=0;exitDy=0;" parent="1" source="5" target="2" edge="1">
                    <mxGeometry width="50" height="50" relative="1" as="geometry">
                        <mxPoint x="-460" y="240" as="sourcePoint"/>
                        <mxPoint x="-410" y="190" as="targetPoint"/>
                    </mxGeometry>
                </mxCell>
                <mxCell id="122" value="←↑→↓↖↙↗↘↕" style="text;html=1;align=center;verticalAlign=middle;resizable=0;points=[];autosize=1;strokeColor=none;fillColor=none;" parent="1" vertex="1">
                    <mxGeometry x="-250" y="55" width="120" height="30" as="geometry"/>
                </mxCell>
                <mxCell id="126" value="" style="endArrow=none;html=1;strokeColor=#FFFFFF;curved=1;entryX=0.5;entryY=1;entryDx=0;entryDy=0;" parent="1" target="5" edge="1">
                    <mxGeometry width="50" height="50" relative="1" as="geometry">
                        <mxPoint x="-440" y="490" as="sourcePoint"/>
                        <mxPoint x="-490" y="460" as="targetPoint"/>
                    </mxGeometry>
                </mxCell>
                <mxCell id="127" value="" style="endArrow=classic;html=1;strokeColor=#FF99FF;curved=1;entryX=1;entryY=0.5;entryDx=0;entryDy=0;" parent="1" edge="1">
                    <mxGeometry width="50" height="50" relative="1" as="geometry">
                        <mxPoint x="-440" y="350" as="sourcePoint"/>
                        <mxPoint x="-809" y="350" as="targetPoint"/>
                    </mxGeometry>
                </mxCell>
                <mxCell id="128" value="&lt;span style=&quot;font-size: 12px; background-color: rgb(42, 37, 47);&quot;&gt;→post, prior&lt;/span&gt;" style="edgeLabel;html=1;align=center;verticalAlign=middle;resizable=0;points=[];" parent="127" vertex="1" connectable="0">
                    <mxGeometry x="0.3944" y="-1" relative="1" as="geometry">
                        <mxPoint x="-38" as="offset"/>
                    </mxGeometry>
                </mxCell>
                <mxCell id="137" value="&lt;span style=&quot;font-size: 12px; background-color: rgb(42, 37, 47);&quot;&gt;←&lt;/span&gt;embed, post_t-1" style="edgeLabel;html=1;align=center;verticalAlign=middle;resizable=0;points=[];" parent="127" vertex="1" connectable="0">
                    <mxGeometry x="-0.2511" y="-1" relative="1" as="geometry">
                        <mxPoint x="38" as="offset"/>
                    </mxGeometry>
                </mxCell>
                <mxCell id="155" value="[1]" style="edgeLabel;html=1;align=center;verticalAlign=middle;resizable=0;points=[];" parent="127" vertex="1" connectable="0">
                    <mxGeometry x="0.118" y="-1" relative="1" as="geometry">
                        <mxPoint x="-1" as="offset"/>
                    </mxGeometry>
                </mxCell>
                <mxCell id="136" value="" style="endArrow=none;html=1;strokeColor=#FFFFFF;curved=1;entryX=0;entryY=0.5;entryDx=0;entryDy=0;exitX=1;exitY=0.5;exitDx=0;exitDy=0;" parent="1" source="7" target="88" edge="1">
                    <mxGeometry width="50" height="50" relative="1" as="geometry">
                        <mxPoint x="-543" y="510" as="sourcePoint"/>
                        <mxPoint x="-493" y="460" as="targetPoint"/>
                    </mxGeometry>
                </mxCell>
                <mxCell id="141" value="" style="endArrow=none;html=1;strokeColor=#FFFFFF;entryX=0.5;entryY=1;entryDx=0;entryDy=0;exitX=0.5;exitY=0;exitDx=0;exitDy=0;" parent="1" source="8" edge="1">
                    <mxGeometry width="50" height="50" relative="1" as="geometry">
                        <mxPoint x="-526" y="590" as="sourcePoint"/>
                        <mxPoint x="-526.0000000000002" y="519.9999999999999" as="targetPoint"/>
                        <Array as="points">
                            <mxPoint x="-440" y="660"/>
                            <mxPoint x="-526" y="660"/>
                        </Array>
                    </mxGeometry>
                </mxCell>
                <mxCell id="149" value="" style="endArrow=none;html=1;strokeColor=#FFFFFF;entryX=0.5;entryY=1;entryDx=0;entryDy=0;exitX=0.5;exitY=0;exitDx=0;exitDy=0;" parent="1" source="8" target="88" edge="1">
                    <mxGeometry width="50" height="50" relative="1" as="geometry">
                        <mxPoint x="-590" y="540" as="sourcePoint"/>
                        <mxPoint x="-540" y="490" as="targetPoint"/>
                        <Array as="points">
                            <mxPoint x="-440" y="660"/>
                            <mxPoint x="-354" y="660"/>
                        </Array>
                    </mxGeometry>
                </mxCell>
                <mxCell id="150" value="" style="endArrow=none;html=1;strokeColor=#FFFFFF;entryX=0.25;entryY=1;entryDx=0;entryDy=0;exitX=0.5;exitY=0;exitDx=0;exitDy=0;" parent="1" source="9" target="7" edge="1">
                    <mxGeometry width="50" height="50" relative="1" as="geometry">
                        <mxPoint x="-330" y="700" as="sourcePoint"/>
                        <mxPoint x="-280" y="650" as="targetPoint"/>
                        <Array as="points">
                            <mxPoint x="-440" y="830"/>
                            <mxPoint x="-554" y="830"/>
                        </Array>
                    </mxGeometry>
                </mxCell>
                <mxCell id="152" value="" style="endArrow=none;html=1;strokeColor=#FFFFFF;entryX=0.5;entryY=1;entryDx=0;entryDy=0;exitX=0.5;exitY=0;exitDx=0;exitDy=0;" parent="1" source="10" target="9" edge="1">
                    <mxGeometry width="50" height="50" relative="1" as="geometry">
                        <mxPoint x="-550" y="970" as="sourcePoint"/>
                        <mxPoint x="-500" y="920" as="targetPoint"/>
                    </mxGeometry>
                </mxCell>
                <mxCell id="156" value="" style="endArrow=classic;html=1;strokeColor=#FF99FF;curved=1;entryX=1;entryY=0.5;entryDx=0;entryDy=0;" parent="1" target="153" edge="1">
                    <mxGeometry width="50" height="50" relative="1" as="geometry">
                        <mxPoint x="-554" y="780" as="sourcePoint"/>
                        <mxPoint x="-803" y="780" as="targetPoint"/>
                    </mxGeometry>
                </mxCell>
                <mxCell id="162" value="&lt;span style=&quot;font-size: 12px; background-color: rgb(42, 37, 47);&quot;&gt;←&lt;/span&gt;post" style="edgeLabel;html=1;align=center;verticalAlign=middle;resizable=0;points=[];" vertex="1" connectable="0" parent="156">
                    <mxGeometry x="-0.1242" relative="1" as="geometry">
                        <mxPoint x="42" as="offset"/>
                    </mxGeometry>
                </mxCell>
                <mxCell id="163" value="&lt;span style=&quot;font-size: 12px; background-color: rgb(42, 37, 47);&quot;&gt;→feat&lt;/span&gt;" style="edgeLabel;html=1;align=center;verticalAlign=middle;resizable=0;points=[];" vertex="1" connectable="0" parent="156">
                    <mxGeometry x="0.451" y="1" relative="1" as="geometry">
                        <mxPoint as="offset"/>
                    </mxGeometry>
                </mxCell>
                <mxCell id="160" value="" style="endArrow=none;html=1;strokeColor=#FFFFFF;entryX=0.5;entryY=1;entryDx=0;entryDy=0;exitX=0.5;exitY=0;exitDx=0;exitDy=0;" parent="1" edge="1">
                    <mxGeometry width="50" height="50" relative="1" as="geometry">
                        <mxPoint x="-440.91" y="1200" as="sourcePoint"/>
                        <mxPoint x="-440.91" y="1100" as="targetPoint"/>
                    </mxGeometry>
                </mxCell>
                <mxCell id="161" value="" style="endArrow=none;html=1;strokeColor=#FFFFFF;entryX=0.5;entryY=1;entryDx=0;entryDy=0;" parent="1" edge="1">
                    <mxGeometry width="50" height="50" relative="1" as="geometry">
                        <mxPoint x="-440" y="1180" as="sourcePoint"/>
                        <mxPoint x="-410" y="780" as="targetPoint"/>
                        <Array as="points">
                            <mxPoint x="-360" y="1180"/>
                            <mxPoint x="-360" y="820"/>
                            <mxPoint x="-410" y="820"/>
                        </Array>
                    </mxGeometry>
                </mxCell>
                <mxCell id="164" value="nets.py/Decoder.py" style="swimlane;fontStyle=0;childLayout=stackLayout;horizontal=1;startSize=30;horizontalStack=0;resizeParent=1;resizeParentMax=0;resizeLast=0;collapsible=1;marginBottom=0;whiteSpace=wrap;html=1;" vertex="1" parent="1">
                    <mxGeometry x="-200" y="865" width="140" height="120" as="geometry"/>
                </mxCell>
                <mxCell id="165" value="__call__" style="text;strokeColor=none;fillColor=none;align=left;verticalAlign=middle;spacingLeft=4;spacingRight=4;overflow=hidden;points=[[0,0.5],[1,0.5]];portConstraint=eastwest;rotatable=0;whiteSpace=wrap;html=1;" vertex="1" parent="164">
                    <mxGeometry y="30" width="140" height="30" as="geometry"/>
                </mxCell>
                <mxCell id="170" style="edgeStyle=none;html=1;entryX=1;entryY=0.5;entryDx=0;entryDy=0;exitX=1;exitY=0.5;exitDx=0;exitDy=0;strokeColor=#FF99FF;" edge="1" parent="164" source="165" target="166">
                    <mxGeometry relative="1" as="geometry">
                        <mxPoint x="160" y="25" as="sourcePoint"/>
                        <mxPoint x="150" y="55" as="targetPoint"/>
                        <Array as="points">
                            <mxPoint x="200" y="45"/>
                            <mxPoint x="200" y="65"/>
                            <mxPoint x="200" y="75"/>
                        </Array>
                    </mxGeometry>
                </mxCell>
                <mxCell id="166" value="_cnn" style="text;strokeColor=none;fillColor=none;align=left;verticalAlign=middle;spacingLeft=4;spacingRight=4;overflow=hidden;points=[[0,0.5],[1,0.5]];portConstraint=eastwest;rotatable=0;whiteSpace=wrap;html=1;" vertex="1" parent="164">
                    <mxGeometry y="60" width="140" height="30" as="geometry"/>
                </mxCell>
                <mxCell id="167" value="。。。" style="text;strokeColor=none;fillColor=none;align=left;verticalAlign=middle;spacingLeft=4;spacingRight=4;overflow=hidden;points=[[0,0.5],[1,0.5]];portConstraint=eastwest;rotatable=0;whiteSpace=wrap;html=1;" vertex="1" parent="164">
                    <mxGeometry y="90" width="140" height="30" as="geometry"/>
                </mxCell>
            </root>
        </mxGraphModel>
    </diagram>
</mxfile>